<svg width="24" height="25" viewBox="0 0 24 25" fill="none" xmlns="http://www.w3.org/2000/svg">
<path d="M22.28 22.11L16.34 16.17C17.7836 14.437 18.5022 12.2136 18.3459 9.96367C18.1897 7.71369 17.1707 5.61094 15.5015 4.09413C13.8324 2.57731 11.642 1.76361 9.38739 1.82278C7.13277 1.88195 4.98808 2.80942 3.40078 4.4117C1.81348 6.01397 0.906184 8.16728 0.868187 10.4223C0.830189 12.6774 1.66443 14.8601 3.19684 16.5149C4.72926 18.1698 6.84149 19.169 9.09283 19.3041C11.3442 19.4391 13.5607 18.6997 15.28 17.24L21.22 23.17C21.3607 23.3104 21.5513 23.3893 21.75 23.3893C21.9488 23.3893 22.1394 23.3104 22.28 23.17C22.4205 23.0294 22.4994 22.8387 22.4994 22.64C22.4994 22.4412 22.4205 22.2506 22.28 22.11ZM2.50004 10.66C2.50088 9.48677 2.79001 8.33175 3.34198 7.29649C3.89395 6.26124 4.69185 5.37748 5.66551 4.72295C6.63917 4.06843 7.75875 3.66318 8.92578 3.54287C10.0928 3.42256 11.2715 3.59086 12.3582 4.03297C13.4449 4.47509 14.4064 5.17747 15.1579 6.07833C15.9095 6.9792 16.4282 8.05095 16.6684 9.19931C16.9086 10.3477 16.8629 11.5375 16.5354 12.664C16.2078 13.7906 15.6085 14.8194 14.79 15.66V15.71C13.7932 16.7339 12.5128 17.4361 11.1136 17.7262C9.71434 18.0163 8.2603 17.8812 6.93854 17.338C5.61678 16.7949 4.48777 15.8687 3.69677 14.6786C2.90578 13.4885 2.489 12.0889 2.50004 10.66Z" fill="#2C2C2C"/>
</svg>
