<svg width="40" height="40" viewBox="0 0 40 40" fill="none" xmlns="http://www.w3.org/2000/svg">
<path d="M23.75 17.5C24.4917 17.5 25.2167 17.2801 25.8334 16.868C26.4501 16.456 26.9307 15.8703 27.2145 15.1851C27.4984 14.4998 27.5726 13.7458 27.4279 13.0184C27.2833 12.291 26.9261 11.6228 26.4017 11.0984C25.8772 10.5739 25.209 10.2168 24.4816 10.0721C23.7542 9.92736 23.0002 10.0016 22.3149 10.2855C21.6297 10.5693 21.044 11.0499 20.632 11.6666C20.2199 12.2833 20 13.0083 20 13.75C20 14.7446 20.3951 15.6984 21.0983 16.4017C21.8016 17.1049 22.7554 17.5 23.75 17.5ZM23.75 12.5C23.9972 12.5 24.2389 12.5733 24.4445 12.7107C24.65 12.848 24.8102 13.0432 24.9048 13.2716C24.9995 13.5001 25.0242 13.7514 24.976 13.9939C24.9278 14.2363 24.8087 14.4591 24.6339 14.6339C24.4591 14.8087 24.2363 14.9278 23.9939 14.976C23.7514 15.0242 23.5001 14.9995 23.2716 14.9049C23.0432 14.8102 22.848 14.65 22.7107 14.4445C22.5733 14.2389 22.5 13.9972 22.5 13.75C22.5 13.4185 22.6317 13.1005 22.8661 12.8661C23.1005 12.6317 23.4185 12.5 23.75 12.5Z" fill="#666666"/>
<path d="M32.5 5H7.5C6.83696 5 6.20107 5.26339 5.73223 5.73223C5.26339 6.20107 5 6.83696 5 7.5V32.5C5 33.163 5.26339 33.7989 5.73223 34.2678C6.20107 34.7366 6.83696 35 7.5 35H32.5C33.163 35 33.7989 34.7366 34.2678 34.2678C34.7366 33.7989 35 33.163 35 32.5V7.5C35 6.83696 34.7366 6.20107 34.2678 5.73223C33.7989 5.26339 33.163 5 32.5 5ZM32.5 32.5H7.5V25L13.75 18.75L20.7375 25.7375C21.2059 26.2031 21.8395 26.4645 22.5 26.4645C23.1605 26.4645 23.7941 26.2031 24.2625 25.7375L26.25 23.75L32.5 30V32.5ZM32.5 26.4625L28.0125 21.975C27.5441 21.5094 26.9105 21.248 26.25 21.248C25.5895 21.248 24.9559 21.5094 24.4875 21.975L22.5 23.9625L15.5125 16.975C15.0441 16.5094 14.4105 16.248 13.75 16.248C13.0895 16.248 12.4559 16.5094 11.9875 16.975L7.5 21.4625V7.5H32.5V26.4625Z" fill="#666666"/>
</svg>
